<svg width="60" height="60" viewBox="0 0 60 60" fill="none" xmlns="http://www.w3.org/2000/svg">
<rect width="60" height="60" rx="30" fill="#5BB543"/>
<path d="M32.7 24.3C32.5168 24.4869 32.4141 24.7382 32.4141 25C32.4141 25.2617 32.5168 25.5131 32.7 25.7L34.3 27.3C34.4869 27.4832 34.7382 27.5859 35 27.5859C35.2617 27.5859 35.513 27.4832 35.7 27.3L39.47 23.53C39.9728 24.6412 40.1251 25.8792 39.9064 27.0791C39.6878 28.2791 39.1087 29.3838 38.2463 30.2463C37.3838 31.1087 36.279 31.6878 35.0791 31.9065C33.8792 32.1251 32.6412 31.9728 31.53 31.47L24.62 38.38C24.2222 38.7778 23.6826 39.0013 23.12 39.0013C22.5574 39.0013 22.0178 38.7778 21.62 38.38C21.2222 37.9822 20.9987 37.4426 20.9987 36.88C20.9987 36.3174 21.2222 35.7778 21.62 35.38L28.53 28.47C28.0271 27.3588 27.8749 26.1208 28.0935 24.9208C28.3121 23.7209 28.8913 22.6162 29.7537 21.7537C30.6161 20.8913 31.7209 20.3122 32.9208 20.0935C34.1207 19.8749 35.3588 20.0272 36.47 20.53L32.71 24.29L32.7 24.3Z" stroke="white" stroke-width="2" stroke-linecap="round" stroke-linejoin="round"/>
</svg>
